<svg xmlns="http://www.w3.org/2000/svg" viewBox="0 0 64 64" role="img" aria-label="OMH favicon">
  <defs>
    <linearGradient id="bg" x1="10" x2="56" y1="8" y2="58" gradientUnits="userSpaceOnUse">
      <stop stop-color="#0b122e"/>
      <stop offset=".55" stop-color="#155fff"/>
      <stop offset="1" stop-color="#19d2bd"/>
    </linearGradient>
    <linearGradient id="wing" x1="13" x2="53" y1="18" y2="44" gradientUnits="userSpaceOnUse">
      <stop stop-color="#ffffff"/>
      <stop offset=".45" stop-color="#dce9ff"/>
      <stop offset="1" stop-color="#80f1e0"/>
    </linearGradient>
    <filter id="shadow" x="-20%" y="-20%" width="140%" height="150%">
      <feDropShadow dx="0" dy="4" stdDeviation="4" flood-color="#071036" flood-opacity=".28"/>
    </filter>
  </defs>
  <rect width="64" height="64" rx="17" fill="url(#bg)"/>
  <path d="M15 23c5-7 13-11 23-10-2 4-6 7-11 9 6-1 12-1 18 1-5 5-12 8-21 8h-7c-2 0-3-2-2-4l0-4Z" fill="url(#wing)" opacity=".95"/>
  <path d="M49 23c-4-6-10-9-18-9 2 4 6 7 11 9-4 0-8 1-12 3 5 4 11 6 18 5 3 0 4-4 1-8Z" fill="#f6fbff" opacity=".82"/>
  <g filter="url(#shadow)">
    <path d="M20 34c0-9 6-16 13-16s13 7 13 16v4c0 7-5 12-13 12s-13-5-13-12v-4Z" fill="#f8fbff"/>
    <path d="M24 31c1-7 5-11 9-11s8 4 9 11c-4-3-7-4-9-4s-5 1-9 4Z" fill="#07123f"/>
    <path d="M23 36c2 5 5 7 10 7s8-2 10-7v4c0 6-4 10-10 10s-10-4-10-10v-4Z" fill="#dce9ff"/>
    <circle cx="28" cy="35" r="2" fill="#07123f"/>
    <circle cx="38" cy="35" r="2" fill="#07123f"/>
    <path d="M30 41c2 1 4 1 6 0" fill="none" stroke="#0c205e" stroke-width="2" stroke-linecap="round"/>
  </g>
  <path d="M20 25c4-10 22-10 26 0-4-3-8-4-13-4s-9 1-13 4Z" fill="#0b122e"/>
  <path d="M33 9l3 8h-6l3-8Z" fill="#f2b84b"/>
  <path d="M16 49l5 5M48 49l-5 5" stroke="#9ff5e7" stroke-width="3" stroke-linecap="round"/>
</svg>
